<svg xmlns="http://www.w3.org/2000/svg" fill="none" viewBox="0 0 600 85" width="600" height="85">
  <path d="M197.424 9.8558V57.704H224.1V70.0912H182.317V9.8558H197.424Z" fill="#F8FAFC"/>
  <path d="M253.477 70.9317C249.79 81.9682 245.754 85 236.696 85C234.434 85 232.003 84.7499 229.232 84.1595V74.0536H229.402C233.089 74.8941 236.108 74.4738 237.543 72.2825C238.799 70.3414 238.55 67.6498 237.204 63.8576L223.194 26.9559H236.616L246.352 55.2625H246.522L254.663 26.9559H268.086L253.487 70.9317H253.477Z" fill="#F8FAFC"/>
  <path d="M314.722 70.0912H301.299V45.2366C301.299 38.7528 299.037 36.5615 294.583 36.5615C289.461 36.5615 286.531 39.173 286.531 45.1566V70.0912H273.108V26.9559H286.531V33.1895H286.7C288.963 29.2272 293.158 25.6051 300.791 25.6051C309.092 25.6051 314.722 31.0783 314.722 40.9341V70.0912Z" fill="#F8FAFC"/>
  <path d="M336.207 26.9559L343.082 39.4232H343.252L350.128 26.9559H364.388L351.304 48.0983L366.072 70.0812H350.975L343.252 56.7734H343.082L335.37 70.0812H320.273L335.041 48.0983L321.957 26.9559H336.217H336.207Z" fill="#F8FAFC"/>
  <path d="M372.788 9.8558H401.896C414.392 9.8558 422.204 16.4297 422.204 29.0671C422.204 41.7045 414.402 48.2784 401.896 48.2784H387.885V70.1012H372.788V9.8558ZM387.885 35.8811H398.707C403.909 35.8811 407.098 34.1101 407.098 29.0571C407.098 24.0041 403.909 22.2331 398.707 22.2331H387.885V35.8811Z" fill="#F8FAFC"/>
  <path d="M448.044 71.432C433.694 71.432 425.055 61.9164 425.055 48.5185C425.055 35.1207 433.694 25.6051 448.044 25.6051C462.393 25.6051 470.943 35.1207 470.943 48.5185C470.943 61.9164 462.304 71.432 448.044 71.432ZM448.044 61.3261C453.913 61.3261 457.521 56.8635 457.521 48.5185C457.521 40.1736 453.913 35.711 448.044 35.711C442.174 35.711 438.477 40.1736 438.477 48.5185C438.477 56.8635 442.085 61.3261 448.044 61.3261Z" fill="#F8FAFC"/>
  <path d="M491.003 9.8558V41.5344L503.589 26.9559H519.612L504.426 43.1254L521.376 70.0812H505.432L495.278 52.8911L491.003 57.3537V70.0712H477.58V9.8558H491.003Z" fill="#F8FAFC"/>
  <path d="M551.58 57.0336H564.923C562.571 65.7087 555.865 71.442 544.196 71.442C529.936 71.442 521.296 62.0065 521.296 48.5286C521.296 35.0506 529.767 25.6151 543.449 25.6151C558.127 25.6151 565.601 36.4014 565.601 52.0706H534.729C534.729 58.1342 539.174 61.3361 543.957 61.3361C548.74 61.3361 550.753 59.1448 551.59 57.0436L551.58 57.0336ZM552.168 43.8858C552.168 37.9023 548.561 34.8705 543.439 34.8705C538.317 34.8705 534.709 37.9023 534.709 43.8858H552.168Z" fill="#F8FAFC"/>
  <path d="M600 26.5356V38.3325H599.831C592.955 37.0718 585.65 40.864 585.65 50.0394V70.0912H572.228V26.9559H585.65V34.03H585.82C587.922 29.2272 591.61 26.1954 596.303 26.1954C597.479 26.1954 598.485 26.1954 599.99 26.5356H600Z" fill="#F8FAFC"/>
  <path d="M65.5273 0L3.29592 62.4968C-1.09864 66.9094-1.09864 74.0636 3.29592 78.4662C7.69049 82.8788 14.8155 82.8788 19.2001 78.4662L68.4471 29.0171L79.6976 40.3137L92.6919 27.266L65.5273 0Z" fill="#F8FAFC"/>
  <path d="M150.519 30.7881L119.857 0L57.6351 62.4768C53.2405 66.8894 53.2405 74.0436 57.6351 78.4462C62.0297 82.8587 69.1546 82.8587 73.5392 78.4462L95.4523 56.4432L110.21 71.2619C123.374 84.4797 138.491 85.8105 151.745 72.5027C164.998 59.1948 163.673 44.0159 150.509 30.7981L150.519 30.7881ZM135.85 56.5233C130.549 61.8464 125.337 60.3355 119.857 54.8423L108.457 43.3955L122.776 29.0171L134.176 40.4638C139.657 45.967 141.162 51.2001 135.86 56.5233H135.85Z" fill="#F8FAFC"/>
</svg>
