<svg xmlns="http://www.w3.org/2000/svg" viewBox="0 0 1200 630" fill="none">
  <defs>
    <linearGradient id="bg1" x1="0" y1="0" x2="1200" y2="630" gradientUnits="userSpaceOnUse">
      <stop offset="0%" stop-color="#04081d"/>
      <stop offset="50%" stop-color="#0b1224"/>
      <stop offset="100%" stop-color="#121c2c"/>
    </linearGradient>
    <linearGradient id="gold1" x1="0" y1="0" x2="1" y2="1">
      <stop offset="0%" stop-color="#f59e0b"/>
      <stop offset="50%" stop-color="#fbbf24"/>
      <stop offset="100%" stop-color="#d97706"/>
    </linearGradient>
    <linearGradient id="goldText" x1="0" y1="0" x2="600" y2="0" gradientUnits="userSpaceOnUse">
      <stop offset="0%" stop-color="#fbbf24"/>
      <stop offset="100%" stop-color="#f59e0b"/>
    </linearGradient>
    <filter id="glow1">
      <feGaussianBlur stdDeviation="20" result="blur"/>
      <feMerge><feMergeNode in="blur"/><feMergeNode in="SourceGraphic"/></feMerge>
    </filter>
    <pattern id="diamonds" width="60" height="60" patternUnits="userSpaceOnUse">
      <path d="M30 5 L55 30 L30 55 L5 30 Z" stroke="#f59e0b" stroke-width="0.5" fill="none" opacity="0.06"/>
    </pattern>
  </defs>
  
  <!-- Background -->
  <rect width="1200" height="630" fill="url(#bg1)"/>
  <rect width="1200" height="630" fill="url(#diamonds)"/>
  
  <!-- Ambient glow -->
  <ellipse cx="900" cy="300" rx="400" ry="300" fill="#f59e0b" opacity="0.04" filter="url(#glow1)"/>
  <ellipse cx="200" cy="500" rx="300" ry="200" fill="#f59e0b" opacity="0.03"/>
  
  <!-- Trophy icon -->
  <g transform="translate(820, 80)" opacity="0.15">
    <path d="M80 20 H160 V60 C160 120 120 160 120 160 C120 160 80 120 80 60 Z" stroke="#fbbf24" stroke-width="3" fill="none"/>
    <rect x="100" y="160" width="40" height="20" stroke="#fbbf24" stroke-width="2" fill="none"/>
    <rect x="85" y="180" width="70" height="10" rx="3" stroke="#fbbf24" stroke-width="2" fill="none"/>
    <path d="M80 40 H40 C40 80 60 80 80 70" stroke="#fbbf24" stroke-width="2" fill="none"/>
    <path d="M160 40 H200 C200 80 180 80 160 70" stroke="#fbbf24" stroke-width="2" fill="none"/>
    <text x="120" y="110" text-anchor="middle" fill="#fbbf24" font-size="40" font-weight="bold">★</text>
  </g>
  
  <!-- 5 poker chips in a row -->
  <g transform="translate(100, 400)">
    <circle cx="0" cy="0" r="45" fill="#1e293b" stroke="#f59e0b" stroke-width="2.5"/>
    <circle cx="0" cy="0" r="35" fill="none" stroke="#f59e0b" stroke-width="1" stroke-dasharray="8 6"/>
    <text x="0" y="7" text-anchor="middle" fill="#fbbf24" font-size="28" font-weight="900">1</text>
  </g>
  <g transform="translate(200, 400)">
    <circle cx="0" cy="0" r="45" fill="#1e293b" stroke="#5f84d8" stroke-width="2.5"/>
    <circle cx="0" cy="0" r="35" fill="none" stroke="#5f84d8" stroke-width="1" stroke-dasharray="8 6"/>
    <text x="0" y="7" text-anchor="middle" fill="#7aa0e0" font-size="28" font-weight="900">2</text>
  </g>
  <g transform="translate(300, 400)">
    <circle cx="0" cy="0" r="45" fill="#1e293b" stroke="#29a072" stroke-width="2.5"/>
    <circle cx="0" cy="0" r="35" fill="none" stroke="#29a072" stroke-width="1" stroke-dasharray="8 6"/>
    <text x="0" y="7" text-anchor="middle" fill="#4abb8b" font-size="28" font-weight="900">3</text>
  </g>
  <g transform="translate(400, 400)">
    <circle cx="0" cy="0" r="45" fill="#1e293b" stroke="#f43f5e" stroke-width="2.5"/>
    <circle cx="0" cy="0" r="35" fill="none" stroke="#f43f5e" stroke-width="1" stroke-dasharray="8 6"/>
    <text x="0" y="7" text-anchor="middle" fill="#fb7185" font-size="28" font-weight="900">4</text>
  </g>
  <g transform="translate(500, 400)">
    <circle cx="0" cy="0" r="45" fill="#1e293b" stroke="#94a3b8" stroke-width="2.5"/>
    <circle cx="0" cy="0" r="35" fill="none" stroke="#94a3b8" stroke-width="1" stroke-dasharray="8 6"/>
    <text x="0" y="7" text-anchor="middle" fill="#cbd5e1" font-size="28" font-weight="900">5</text>
  </g>
  
  <!-- Card suits scattered -->
  <text x="700" y="520" fill="#f59e0b" opacity="0.08" font-size="120">♠</text>
  <text x="950" y="580" fill="#f43f5e" opacity="0.06" font-size="80">♥</text>
  <text x="1050" y="200" fill="#f59e0b" opacity="0.07" font-size="90">♦</text>
  <text x="1100" y="480" fill="#29a072" opacity="0.06" font-size="70">♣</text>
  
  <!-- Title text -->
  <text x="100" y="160" fill="url(#goldText)" font-size="22" font-weight="700" letter-spacing="4" text-transform="uppercase" font-family="system-ui, sans-serif">TOP 5 COMPARISON</text>
  <text x="100" y="220" fill="#f8fafc" font-size="52" font-weight="900" font-family="system-ui, sans-serif">Best Poker Tournament</text>
  <text x="100" y="285" fill="#f8fafc" font-size="52" font-weight="900" font-family="system-ui, sans-serif">Management Tools</text>
  <text x="100" y="330" fill="#94a3b8" font-size="28" font-weight="500" font-family="system-ui, sans-serif">2026 Edition</text>
  
  <!-- Bottom accent line -->
  <rect x="0" y="620" width="1200" height="10" fill="url(#gold1)"/>
  
  <!-- LynxPoker branding -->
  <rect x="980" y="555" width="190" height="45" rx="8" fill="#0b1224" stroke="#f59e0b" stroke-width="1.5" opacity="0.9"/>
  <text x="1075" y="584" text-anchor="middle" fill="#fbbf24" font-size="18" font-weight="700" font-family="system-ui, sans-serif">🐱 LynxPoker</text>
</svg>
